<svg xmlns="http://www.w3.org/2000/svg" width="33" height="29" viewBox="0 0 33 29">
    <path fill="#85D733" fill-rule="nonzero" d="M32.451 23.162c.716 1.188.735 2.625.039 3.851a3.842 3.842 0 0 1-3.365 1.936H3.875A3.842 3.842 0 0 1 .51 27.013c-.696-1.226-.677-2.663.039-3.851L12.827 1.929A3.836 3.836 0 0 1 16.153.051c1.373 0 2.61.69 3.306 1.859l12.992 21.252zM18.087 7.87a1.93 1.93 0 0 0-1.934-1.917 1.93 1.93 0 0 0-1.934 1.917v7.665a1.93 1.93 0 0 0 1.934 1.916 1.93 1.93 0 0 0 1.934-1.916V7.87zm0 15.33a1.93 1.93 0 0 0-1.934-1.916 1.93 1.93 0 0 0-1.934 1.916 1.93 1.93 0 0 0 1.934 1.916 1.93 1.93 0 0 0 1.934-1.916z"/>
</svg>
