<?xml version="1.0" encoding="UTF-8"?>
<svg width="16px" height="14px" viewBox="0 0 16 14" version="1.1" xmlns="http://www.w3.org/2000/svg" xmlns:xlink="http://www.w3.org/1999/xlink">
    <!-- Generator: sketchtool 51.1 (57501) - http://www.bohemiancoding.com/sketch -->
    <title>31F4C22D-1155-4CAE-83B6-F1E4897EA19C</title>
    <desc>Created with sketchtool.</desc>
    <defs></defs>
    <g id="Page-1" stroke="none" stroke-width="1" fill="none" fill-rule="evenodd" opacity="0.5">
        <g id="New-will---Payment-Mobile_" transform="translate(-216.000000, -551.000000)" fill="#354052" fill-rule="nonzero">
            <g id="paperclip-archive-copy" transform="translate(216.000000, 551.000000)">
                <path d="M14.2370909,1.46393333 C12.5333333,-0.176866667 9.77018182,-0.176866667 8.06642424,1.46393333 L0.992484848,8.19186667 C-0.330666667,9.4654 -0.330666667,11.5383333 0.992484848,12.8118667 C2.31563636,14.0854 4.46884848,14.0854 5.79151515,12.8118667 L12.8654545,6.08346667 C13.8123636,5.17206667 13.8123636,3.69506667 12.8654545,2.78366667 C11.9185455,1.87273333 10.3835152,1.87273333 9.43757576,2.78366667 L4.11975758,7.90206667 C3.93018182,8.085 3.93018182,8.37946667 4.11975758,8.5624 C4.30933333,8.74486667 4.61575758,8.74486667 4.80533333,8.5624 L10.1236364,3.44353333 C10.6909091,2.898 11.6130909,2.898 12.1803636,3.44353333 C12.7476364,3.98953333 12.7476364,4.8776 12.1803636,5.4236 L5.10642424,12.1515333 C4.15951515,13.0629333 2.62545455,13.0629333 1.67854545,12.1515333 C0.731636364,11.2406 0.731636364,9.76313333 1.67854545,8.8522 L8.68315152,2.1896 C10.0087273,0.913733333 12.1585455,0.913733333 13.4821818,2.1896 C14.8087273,3.46593333 14.8087273,5.53326667 13.4831515,6.80913333 L8.23418182,11.8617333 C8.04363636,12.0446667 8.04363636,12.3391333 8.23418182,12.5216 C8.42375758,12.7045333 8.73018182,12.7045333 8.91975758,12.5216 L14.2370909,7.4032 C15.9418182,5.76333333 15.9418182,3.1038 14.2370909,1.46393333 Z" id="clip_2_"></path>
            </g>
        </g>
    </g>
</svg>