<svg xmlns="http://www.w3.org/2000/svg" width="19" height="24" viewBox="0 0 19 24">
    <path fill="#FFF" fill-rule="nonzero" d="M17.61 9.687h-.48V7.499c0-4.046-3.301-7.425-7.427-7.498a17.174 17.174 0 0 0-.451 0C5.126.074 1.825 3.453 1.825 7.5v2.188h-.48C.604 9.687 0 10.43 0 11.348V22.32c0 .917.604 1.667 1.345 1.667H17.61c.74 0 1.345-.75 1.345-1.667V11.348c0-.918-.604-1.661-1.345-1.661zm-6.609 7.136v3.315c0 .38-.327.7-.717.7H8.67a.718.718 0 0 1-.717-.7v-3.315a1.946 1.946 0 0 1-.6-1.42c0-1.05.836-1.954 1.898-1.996.113-.004.338-.004.45 0 1.063.042 1.899.945 1.899 1.997 0 .555-.221 1.056-.6 1.419zm2.961-7.136H4.992V7.499c0-2.41 2.014-4.403 4.485-4.403 2.472 0 4.485 1.993 4.485 4.403v2.188z" opacity=".5"/>
</svg>
