<?xml version="1.0" encoding="utf-8"?>
<!-- Generator: Adobe Illustrator 21.0.0, SVG Export Plug-In . SVG Version: 6.00 Build 0)  -->
<svg version="1.1" id="Layer_1" xmlns="http://www.w3.org/2000/svg" xmlns:xlink="http://www.w3.org/1999/xlink" x="0px" y="0px"
	 viewBox="0 0 56.3 24.8" style="enable-background:new 0 0 56.3 24.8;" xml:space="preserve">
<style type="text/css">
	.st0{fill:#FFFFFF;}
</style>
<path class="st0" d="M6.8,0C2.9,0,0,1.6,0,3.8s2.9,3.8,6.8,3.8s6.8-1.6,6.8-3.8S10.6,0,6.8,0z M6.8,5.9c-3.1,0-5.1-1.2-5.1-2.1
	s1.9-2.1,5.1-2.1s5.1,1.2,5.1,2.1S9.9,5.9,6.8,5.9z"/>
<path id="e" class="st0" d="M7,24.8c-2,0-3.7-0.6-4.9-1.8c-1.2-1.1-2-2.8-2-4.9v-0.2c0-2.1,0.7-3.8,2-5c1.2-1.2,2.9-1.9,4.8-1.9
	c1.7,0,3.3,0.5,4.5,1.6s2,2.8,2,5.1v1H3.8c0.1,2.2,1.3,3.5,3.3,3.5c1.7,0,2.5-0.7,2.8-1.9h3.5C13,23.2,10.7,24.8,7,24.8z M9.8,16.5
	c-0.1-2-1.1-3-2.9-3c-1.6,0-2.8,1.1-3,3H9.8z"/>
<path id="will" class="st0" d="M14.9,11.3h3.9l2.4,8.9l2.6-8.9h3l2.3,8.9l2.5-8.9h3.5l-4.2,13.3h-3.6l-2.3-8.3l-2.4,8.3H19
	L14.9,11.3z M39.3,9.5c-1.2,0-2.1-0.9-2.1-2s0.9-2,2.1-2c1.2,0,2.1,0.9,2.1,2S40.5,9.5,39.3,9.5z M37.5,11.3h3.7v13.3h-3.7V11.3z
	 M44.9,5.2h3.7v19.3h-3.7V5.2z M52.3,5.2H56v19.3h-3.7V5.2z"/>
</svg>
