<?xml version="1.0" encoding="UTF-8"?>
<svg width="1440px" height="919px" viewBox="0 0 1440 919" version="1.1" xmlns="http://www.w3.org/2000/svg" xmlns:xlink="http://www.w3.org/1999/xlink">
    <!-- Generator: sketchtool 51.1 (57501) - http://www.bohemiancoding.com/sketch -->
    <title>3BCFBCD3-02CF-426A-98B6-5224F3A435EB</title>
    <desc>Created with sketchtool.</desc>
    <defs>
        <linearGradient x1="61.8847656%" y1="100%" x2="61.8847668%" y2="0%" id="linearGradient-1">
            <stop stop-color="#0098FF" offset="0%"></stop>
            <stop stop-color="#005FFF" offset="100%"></stop>
        </linearGradient>
        <linearGradient x1="50%" y1="-2.48949813e-15%" x2="50%" y2="98.6068461%" id="linearGradient-2">
            <stop stop-color="#FFFFFF" stop-opacity="0.2247226" offset="0%"></stop>
            <stop stop-color="#FFFFFF" stop-opacity="0.0783797554" offset="100%"></stop>
        </linearGradient>
    </defs>
    <g id="Page-1" stroke="none" stroke-width="1" fill="none" fill-rule="evenodd">
        <g id="Claim-—-no-wills">
            <g id="BG">
                <rect id="Rectangle" fill="url(#linearGradient-1)" x="0" y="0" width="1440" height="919"></rect>
                <path d="M915.256593,796.495495 L892.834936,796.495495 C891.166944,782.896829 879.634504,772.36036 865.628777,772.36036 C856.426123,772.36036 848.302261,776.921477 843.325298,783.899495 C840.223982,780.952468 836.048938,779.135135 831.441702,779.135135 C827.892999,779.135135 824.597534,780.210631 821.852438,782.048288 C814.976194,766.134342 799.184297,755 780.794183,755 C762.57627,755 746.912681,765.929405 739.935141,781.606234 C737.021221,780.031099 733.688614,779.135135 730.146664,779.135135 C719.877036,779.135135 711.38007,786.651748 709.764414,796.495495 L683.743407,796.495495 C682.227358,796.495495 681,797.728505 681,799.247748 C681,800.766991 682.227358,802 683.743407,802 L915.256593,802 C916.770954,802 918,800.766991 918,799.247748 C918,797.728505 916.770954,796.495495 915.256593,796.495495" id="Fill-1" fill="url(#linearGradient-2)"></path>
                <path d="M381.780055,250.580787 L366.995902,250.580787 C366.995902,242.820648 360.674863,236.529048 352.878415,236.529048 C348.269126,236.529048 344.188525,238.738655 341.612022,242.139409 C337.804645,226.566101 323.706284,215 306.886612,215 C291.412568,215 278.237705,224.787538 273.262295,238.48166 C270.688525,237.242921 267.814208,236.529048 264.763661,236.529048 C255.848361,236.529048 248.338798,242.465751 245.971311,250.580787 L228.219945,250.580787 C226.994536,250.580787 226,251.57069 226,252.790393 C226,254.010096 226.994536,255 228.219945,255 L381.780055,255 C383.005464,255 384,254.010096 384,252.790393 C384,251.57069 383.005464,250.580787 381.780055,250.580787" id="Fill-1" fill="url(#linearGradient-2)"></path>
                <path d="M471.361715,292.73574 L464.754134,292.73574 C464.754134,288.39076 461.218462,284.868372 456.857096,284.868372 C456.174561,284.868372 455.515214,284.963789 454.884096,285.125496 C452.19126,280.282339 447.013271,277 441.062012,277 C432.33827,277 425.266928,284.045779 425.266928,292.73574 L419.638285,292.73574 C418.733952,292.73574 418,293.466935 418,294.36787 C418,295.268806 418.733952,296 419.638285,296 L471.361715,296 C472.266048,296 473,295.268806 473,294.36787 C473,293.466935 472.266048,292.73574 471.361715,292.73574" id="Fill-1" fill="url(#linearGradient-2)"></path>
            </g>
        </g>
    </g>
</svg>