<?xml version="1.0" encoding="utf-8"?>
<!-- Generator: Adobe Illustrator 21.0.0, SVG Export Plug-In . SVG Version: 6.00 Build 0)  -->
<svg version="1.1" id="Layer_1" xmlns="http://www.w3.org/2000/svg" xmlns:xlink="http://www.w3.org/1999/xlink" x="0px" y="0px"
	 viewBox="0 0 60 60" style="enable-background:new 0 0 60 60;" xml:space="preserve">
<style type="text/css">
	.st0{filter:url(#filter-2);}
	.st1{fill:#2692FF;}
	.st2{fill:#FFFFFF;}
</style>
<filter  filterUnits="objectBoundingBox" height="123.3%" id="filter-2" width="123.3%" x="-11.7%" y="-8.3%">
	<feOffset  dx="0" dy="2" in="SourceAlpha" result="shadowOffsetOuter1"></feOffset>
	<feGaussianBlur  in="shadowOffsetOuter1" result="shadowBlurOuter1" stdDeviation="2"></feGaussianBlur>
	<feColorMatrix  in="shadowBlurOuter1" type="matrix" values="0 0 0 0 0   0 0 0 0 0   0 0 0 0 0  0 0 0 0.1 0"></feColorMatrix>
</filter>
<title>0A29E00A-9A6C-4278-A9BB-6D477C83CD1B</title>
<desc>Created with sketchtool.</desc>
<g id="Page-1">
	<g id="Main" transform="translate(-1301.000000, -659.000000)">
		<g id="Telegram" transform="translate(1305.000000, 661.000000)">
			<g id="Group-16">
				<g id="Oval-9">
					<g class="st0">
						<circle id="path-1_2_" cx="26" cy="28" r="30"/>
					</g>
					<g>
						<circle id="path-1_1_" class="st1" cx="26" cy="28" r="30"/>
					</g>
				</g>
				<path id="Shape" class="st2" d="M38.3,13.1L6.3,25.5c-1,0.4-1,1.9,0.1,2.2l8.1,2.4l3,9.6c0.3,1,1.6,1.3,2.3,0.6l4.2-4.3l8.2,6
					c1,0.7,2.4,0.2,2.7-1l5.4-26.1C40.7,13.7,39.5,12.6,38.3,13.1z M34.3,18.9L19.4,32c-0.1,0.1-0.2,0.3-0.3,0.5l-0.6,5.1
					c0,0.2-0.3,0.2-0.3,0L15.9,30c-0.1-0.3,0-0.7,0.3-0.9l17.5-10.9C34.2,18,34.6,18.5,34.3,18.9z"/>
			</g>
		</g>
	</g>
</g>
</svg>
