<?xml version="1.0" encoding="utf-8"?>
<!-- Generator: Adobe Illustrator 21.0.0, SVG Export Plug-In . SVG Version: 6.00 Build 0)  -->
<svg version="1.1" id="Layer_1" xmlns="http://www.w3.org/2000/svg" xmlns:xlink="http://www.w3.org/1999/xlink" x="0px" y="0px"
	 viewBox="0 0 546 106" style="enable-background:new 0 0 546 106;" xml:space="preserve">
<style type="text/css">
	.st0{fill:url(#SVGID_1_);}
	.st1{fill:url(#SVGID_2_);}
</style>
<title>1F5FCEAC-CE2F-4EF9-8F46-55FC19F69D9F</title>
<desc>Created with sketchtool.</desc>
<g id="Page-1">
	<g id="Main" transform="translate(-413.000000, -2261.000000)">
		<g id="Icon-Box-_x23_1-Copy-5" transform="translate(0.000000, 1966.000000)">
			<g id="Icon-Box" transform="translate(184.000000, 283.000000)">
				<g id="Box-2" transform="translate(228.000000, 0.000000)">
					<g id="Path-3-Copy">
						
							<linearGradient id="SVGID_1_" gradientUnits="userSpaceOnUse" x1="47.6652" y1="89.2375" x2="46.6828" y2="89.2375" gradientTransform="matrix(145 0 0 104.6555 -6768.0215 -9273.5283)">
							<stop  offset="0" style="stop-color:#1C92FF;stop-opacity:0"/>
							<stop  offset="0.21" style="stop-color:#1E92FF"/>
							<stop  offset="0.8361" style="stop-color:#2592FF"/>
							<stop  offset="1" style="stop-color:#2692FF;stop-opacity:0"/>
						</linearGradient>
						<path class="st0" d="M1,118.5v-1c35.5,0,46.5-22.3,58.1-45.9c13.6-27.6,29-58.8,86.9-58.8v1c-57.2,0-71.8,29.6-86,58.2
							C48.2,95.9,37.1,118.5,1,118.5z"/>
					</g>
				</g>
			</g>
		</g>
	</g>
</g>
<g id="Page-1_1_">
	<g id="Main_1_" transform="translate(-824.000000, -2264.000000)">
		<g id="Icon-Box-_x23_1-Copy-5_1_" transform="translate(0.000000, 1966.000000)">
			<g id="Icon-Box_1_" transform="translate(184.000000, 283.000000)">
				<g id="Box-2_1_" transform="translate(228.000000, 0.000000)">
					<g id="Path-3-Copy-2">
						
							<linearGradient id="SVGID_2_" gradientUnits="userSpaceOnUse" x1="461.6861" y1="92.7512" x2="460.7037" y2="92.7512" gradientTransform="matrix(135 0 0 -97.4379 -61372.0234 9106.1426)">
							<stop  offset="0" style="stop-color:#1C92FF;stop-opacity:0"/>
							<stop  offset="0.21" style="stop-color:#1E92FF"/>
							<stop  offset="0.8361" style="stop-color:#2592FF"/>
							<stop  offset="1" style="stop-color:#2692FF;stop-opacity:0"/>
						</linearGradient>
						<path class="st1" d="M958,117.9c-53.9,0-68.2-29.1-80.9-54.8c-10.8-22-21.1-42.7-54.1-42.7v-1c33.6,0,44,21,55,43.2
							c13.2,26.6,26.8,54.2,80,54.2V117.9z"/>
					</g>
				</g>
			</g>
		</g>
	</g>
</g>
</svg>
