<?xml version="1.0" encoding="utf-8"?>
<!-- Generator: Adobe Illustrator 21.0.0, SVG Export Plug-In . SVG Version: 6.00 Build 0)  -->
<svg version="1.1" id="Layer_1" xmlns="http://www.w3.org/2000/svg" xmlns:xlink="http://www.w3.org/1999/xlink" x="0px" y="0px"
	 viewBox="0 0 26.3 22.3" style="enable-background:new 0 0 26.3 22.3;" xml:space="preserve">
<title>7512969E-234B-4367-BEDE-86693B49E411</title>
<desc>Created with sketchtool.</desc>
<g id="Symbols">
	<g id="Footer" transform="translate(-1047.000000, -182.000000)">
		<g id="Group-19">
			<g id="Group-10" transform="translate(113.000000, 26.000000)">
				<g id="Group-8" transform="translate(934.289062, 156.269531)">
					<path id="Path-2" d="M-0.3,0.3v17.3l7.9,4.2c0.2,0.1,0.4,0,0.5-0.2c0-0.1,0-0.1,0-0.2V4L0.3,0C0.1-0.1-0.1,0-0.2,0.2
						C-0.3,0.2-0.3,0.3-0.3,0.3z"/>
					<polygon id="Path-3" points="9.3,4.7 17.1,17.8 9.3,13.5 					"/>
					<path id="Path-4" d="M12.3,8l5.6,9.2l7.9-13.1l-8.3-4.4c-0.1,0-0.2,0-0.3,0.1L12.3,8z"/>
					<path id="Path-5" d="M18.3,18.5l7,3.5c0.2,0.1,0.4,0,0.5-0.2c0-0.1,0-0.1,0-0.2V5.7L18.3,18.5z"/>
				</g>
			</g>
		</g>
	</g>
</g>
</svg>
