<?xml version="1.0" encoding="UTF-8"?>
<svg width="50px" height="50px" viewBox="0 0 50 50" version="1.1" xmlns="http://www.w3.org/2000/svg" xmlns:xlink="http://www.w3.org/1999/xlink">
    <!-- Generator: sketchtool 51.1 (57501) - http://www.bohemiancoding.com/sketch -->
    <title>17D64AA2-F729-4359-AF15-297B575CA7A4</title>
    <desc>Created with sketchtool.</desc>
    <defs></defs>
    <g id="Page-1" stroke="none" stroke-width="1" fill="none" fill-rule="evenodd">
        <g id="New-will---Confirm-Payment-Mobile-Payment-Error" transform="translate(-135.000000, -139.000000)" fill="#FFFFFF" fill-rule="nonzero" stroke="#FFFFFF">
            <g id="Rectangle-5-Copy">
                <g id="Group-23" transform="translate(120.000000, 124.000000)">
                    <g id="cancel-(1)-copy" transform="translate(16.000000, 16.000000)">
                        <path d="M40.969697,7.03030303 C45.5050505,11.5656566 48,17.5858586 48,24 C48,30.4141414 45.5050505,36.4343434 40.969697,40.969697 C36.4343434,45.5050505 30.4141414,48 24,48 C17.5858586,48 11.5656566,45.5050505 7.03030303,40.969697 C2.49494949,36.4343434 0,30.4141414 0,24 C0,17.5858586 2.49494949,11.5656566 7.03030303,7.03030303 C11.5656566,2.49494949 17.5858586,0 24,0 C30.4141414,0 36.4343434,2.49494949 40.969697,7.03030303 Z M39.040404,39.040404 C47.3333333,30.7474747 47.3333333,17.2525253 39.040404,8.95959596 C35.020202,4.93939394 29.6767677,2.72727273 24,2.72727273 C18.3232323,2.72727273 12.979798,4.93939394 8.95959596,8.95959596 C0.666666667,17.2525253 0.666666667,30.7474747 8.95959596,39.040404 C12.979798,43.0606061 18.3232323,45.2727273 24,45.2727273 C29.6767677,45.2727273 35.020202,43.0606061 39.040404,39.040404 Z M34.5749158,13.4234007 C35.1102694,13.9587542 35.1102694,14.8173401 34.5749158,15.3526936 L25.9284512,23.9991582 L34.5547138,32.6456229 C35.0900673,33.1809764 35.0900673,34.0395623 34.5547138,34.5749158 C34.2920875,34.8476431 33.9486532,34.9789562 33.5951178,34.9789562 C33.2516835,34.9789562 32.8981481,34.8375421 32.6355219,34.5749158 L23.9890572,25.9284512 L15.3425926,34.5749158 C15.0799663,34.8476431 14.726431,34.9789562 14.3829966,34.9789562 C14.0395623,34.9789562 13.6860269,34.8375421 13.4234007,34.5749158 C12.8880471,34.0395623 12.8880471,33.1809764 13.4234007,32.6456229 L22.0698653,23.9991582 L13.4234007,15.3526936 C12.8880471,14.8173401 12.8880471,13.9587542 13.4234007,13.4234007 C13.9587542,12.8880471 14.8173401,12.8880471 15.3526936,13.4234007 L23.9991582,22.0698653 L32.6456229,13.4234007 C33.1809764,12.8880471 34.0395623,12.8880471 34.5749158,13.4234007 Z" id="Combined-Shape"></path>
                    </g>
                </g>
            </g>
        </g>
    </g>
</svg>