<?xml version="1.0" encoding="utf-8"?>
<!-- Generator: Adobe Illustrator 21.0.0, SVG Export Plug-In . SVG Version: 6.00 Build 0)  -->
<svg version="1.1" id="Layer_1" xmlns="http://www.w3.org/2000/svg" xmlns:xlink="http://www.w3.org/1999/xlink" x="0px" y="0px"
	 viewBox="0 0 54.2 22" style="enable-background:new 0 0 54.2 22;" xml:space="preserve">
<g id="_x30_03-reading-glasses" transform="translate(13.000000, 29.000000)">
	<path id="Shape" d="M39.5-19.7h-0.9C37.7-25,33.2-29,27.7-29c-3.6,0-6.9,1.8-8.9,4.5c-3-1.4-6.5-1.5-9.5,0c-2-2.7-5.2-4.5-8.9-4.5
		c-5.5,0-10,4-10.8,9.3h-0.9c-1,0-1.7,0.8-1.7,1.7s0.8,1.7,1.7,1.7h0.9C-9.5-11-5-7,0.5-7c6.1,0,11-4.9,11-11c0-1.2-0.2-2.3-0.5-3.4
		c2-0.9,4.3-1,6.4,0c-0.4,1.1-0.5,2.2-0.5,3.4c0,6.1,4.9,11,11,11c5.5,0,10-4,10.8-9.3h0.9c1,0,1.7-0.8,1.7-1.7
		C41.2-19,40.4-19.7,39.5-19.7z M0.5-10.5C-3.7-10.5-7-13.8-7-18c0-4.2,3.4-7.5,7.5-7.5S8-22.2,8-18C8-13.8,4.6-10.5,0.5-10.5z
		 M27.7-10.5c-4.1,0-7.5-3.4-7.5-7.5c0-4.2,3.4-7.5,7.5-7.5c4.1,0,7.5,3.4,7.5,7.5C35.2-13.8,31.9-10.5,27.7-10.5z"/>
</g>
</svg>
