<?xml version="1.0" encoding="utf-8"?>
<!-- Generator: Adobe Illustrator 21.0.0, SVG Export Plug-In . SVG Version: 6.00 Build 0)  -->
<svg version="1.1" id="Layer_1" xmlns="http://www.w3.org/2000/svg" xmlns:xlink="http://www.w3.org/1999/xlink" x="0px" y="0px"
	 viewBox="0 0 24 24" style="enable-background:new 0 0 24 24;" xml:space="preserve">
<title>AB177BF8-19B2-40BB-8871-397442A1E6DE</title>
<desc>Created with sketchtool.</desc>
<g id="Page-1">
	<g id="Main" transform="translate(-688.000000, -3848.000000)">
		<g id="Icon-Box-_x23_1-Copy-4" transform="translate(0.000000, 3180.000000)">
			<g id="Group-12" transform="translate(515.000000, 267.000000)">
				<g id="Group-11-Copy" transform="translate(136.000000, 401.000000)">
					<g id="_x30_06-linkedin-button" transform="translate(37.000000, 0.000000)">
						<path id="Shape" d="M12,0C5.4,0,0,5.4,0,12s5.4,12,12,12s12-5.4,12-12C24,5.4,18.6,0,12,0z M9,17.8H6V7.3h3V17.8z M7.6,6.7
							C6.8,6.7,6.2,6,6.2,5.3s0.6-1.4,1.4-1.4C8.4,3.9,9,4.5,9,5.3C9,6,8.4,6.7,7.6,6.7z M19.5,17.8h-3v-6.5c0-0.8-0.2-1.3-1.2-1.3
							c-1.5,0-1.8,1.3-1.8,1.3v6.5h-3V7.3h3v1c0.4-0.3,1.5-1,3-1c1,0,3,0.6,3,4.1V17.8z"/>
					</g>
				</g>
			</g>
		</g>
	</g>
</g>
</svg>
