<?xml version="1.0" encoding="utf-8"?>
<!-- Generator: Adobe Illustrator 21.0.0, SVG Export Plug-In . SVG Version: 6.00 Build 0)  -->
<svg version="1.1" id="Layer_1" xmlns="http://www.w3.org/2000/svg" xmlns:xlink="http://www.w3.org/1999/xlink" x="0px" y="0px"
	 viewBox="0 0 24 24" style="enable-background:new 0 0 24 24;" xml:space="preserve">
<title>EDEFFADD-813E-45C6-AF88-D7325E2A3E84</title>
<desc>Created with sketchtool.</desc>
<g id="Page-1">
	<g id="Main" transform="translate(-725.000000, -3848.000000)">
		<g id="Icon-Box-_x23_1-Copy-4" transform="translate(0.000000, 3180.000000)">
			<g id="Group-12" transform="translate(515.000000, 267.000000)">
				<g id="Group-11-Copy" transform="translate(136.000000, 401.000000)">
					<g id="_x30_04-facebook-logo-button" transform="translate(74.000000, 0.000000)">
						<path id="Shape" d="M11.9,0C5.3,0,0,5.3,0,11.9c0,6.6,5.3,11.9,11.9,11.9c6.6,0,11.9-5.3,11.9-11.9C23.8,5.3,18.5,0,11.9,0z
							 M14.9,12.3h-1.9c0,3.1,0,6.9,0,6.9h-2.9c0,0,0-3.8,0-6.9H8.7V9.9h1.4V8.3c0-1.1,0.5-2.9,2.9-2.9l2.1,0v2.4c0,0-1.3,0-1.5,0
							s-0.6,0.1-0.6,0.7v1.4h2.2L14.9,12.3z"/>
					</g>
				</g>
			</g>
		</g>
	</g>
</g>
</svg>
