<?xml version="1.0" encoding="utf-8"?>
<!-- Generator: Adobe Illustrator 21.0.0, SVG Export Plug-In . SVG Version: 6.00 Build 0)  -->
<svg version="1.1" id="Layer_1" xmlns="http://www.w3.org/2000/svg" xmlns:xlink="http://www.w3.org/1999/xlink" x="0px" y="0px"
	 viewBox="0 0 24 24" style="enable-background:new 0 0 24 24;" xml:space="preserve">
<title>AB177BF8-19B2-40BB-8871-397442A1E6DE</title>
<desc>Created with sketchtool.</desc>
<g>
	<path d="M12.4,13.5c-0.2,0.2-0.6,0.2-0.8,0l-1.5-1.3l-4.1,4.7c0,0,0,0,0.1,0h12c0,0,0,0,0.1,0l-4.1-4.7L12.4,13.5z"/>
	<polygon points="17.9,7.1 6.1,7.1 12,12.2 	"/>
	<path d="M5.1,7.9C5.1,8,5.1,8,5.1,7.9l0,8l4-4.6L5.1,7.9z"/>
	<path d="M14.9,11.3l4,4.6V8c0,0,0,0,0-0.1L14.9,11.3z"/>
	<path d="M12,0C5.4,0,0,5.4,0,12c0,6.6,5.4,12,12,12s12-5.4,12-12C24,5.4,18.6,0,12,0z M20.1,16c0,1.2-1,2.1-2.1,2.1H6
		c-1.2,0-2.1-1-2.1-2.1V8c0-1.2,1-2.1,2.1-2.1h12c1.2,0,2.1,1,2.1,2.1V16z"/>
</g>
</svg>
