<?xml version="1.0" encoding="utf-8"?>
<!-- Generator: Adobe Illustrator 21.0.0, SVG Export Plug-In . SVG Version: 6.00 Build 0)  -->
<svg version="1.1" id="Layer_1" xmlns="http://www.w3.org/2000/svg" xmlns:xlink="http://www.w3.org/1999/xlink" x="0px" y="0px"
	 viewBox="0 0 25 15" style="enable-background:new 0 0 25 15;" xml:space="preserve">
<title>DE532235-08DA-4CDB-A7BA-B801406526A9</title>
<desc>Created with sketchtool.</desc>
<g id="Symbols">
	<g id="Footer" transform="translate(-921.000000, -187.000000)">
		<g id="Group-19">
			<g id="Group-10" transform="translate(113.000000, 26.000000)">
				<g id="_x30_04-vk-copy" transform="translate(808.000000, 161.000000)">
					<path id="Shape" d="M24.6,0.9C25,1,25.1,1.4,24.9,1.8c-0.1,0.2-0.2,0.5-0.4,0.7c0,0.2-0.1,0.3-0.2,0.4c-1.1,2-2.3,3.9-3.8,5.6
						c0,0,0,0,0,0c1.6,1.2,5.6,4.2,3.6,5.8c-1,0.9-3.9,0.7-5,0.2c-0.6-0.3-1.2-0.8-1.8-1.2c-1-0.8-1.2-0.7-2.1,0.1
						c-1.1,1.1-1.7,1.8-3.4,1.6c-1.9-0.2-3.8-1.3-5.2-2.6C3.6,9.8,0.8,5.3,0,1.3C-0.1,1,0.2,0.7,0.5,0.7c0,0,0,0,0,0
						C2,0.4,3.7,0.3,5.2,0.5c0.1,0,0.3,0.1,0.3,0.2c0,0,0.1,0,0.1,0.1c1.2,1.5,1.7,3.4,3,4.8c0.6,0.7,0.8,0.6,0.9-0.4
						c0-0.4,0-0.8,0-1.2C9.4,2.9,9.1,2,8.9,1c0-0.1,0-0.3,0.1-0.4c0-0.2,0.2-0.4,0.5-0.5c1.5-0.2,3,0,4.5-0.1c0.2-0.1,0.4,0,0.5,0.2
						c0.1,0,0.2,0.1,0.2,0.2c0.2,0.9,0.2,1.9,0.2,2.8c0,0.5,0,0.9,0,1.4c0,0.3,0,0.5,0,0.8c-0.1,0.5,0.1,0.7,0.5,0.6
						c0.8,0.1,1-0.6,1.4-1.2c0.2-0.4,0.4-0.7,0.7-1.1c0.5-0.9,0.8-1.8,1.3-2.7c0.1-0.2,0.2-0.2,0.4-0.3c0,0,0.1,0,0.2,0
						C20.9,0.6,22.8,0.5,24.6,0.9z"/>
				</g>
			</g>
		</g>
	</g>
</g>
</svg>
