<?xml version="1.0" encoding="utf-8"?>
<!-- Generator: Adobe Illustrator 21.0.0, SVG Export Plug-In . SVG Version: 6.00 Build 0)  -->
<svg version="1.1" id="Layer_1" xmlns="http://www.w3.org/2000/svg" xmlns:xlink="http://www.w3.org/1999/xlink" x="0px" y="0px"
	 viewBox="0 0 49 47" style="enable-background:new 0 0 49 47;" xml:space="preserve">
<title>D52A69C5-65D5-43C0-B7AA-7C1B06C56635</title>
<desc>Created with sketchtool.</desc>
<g>
	<path id="Shape" d="M45,19.5c-1.1,0-2,0.9-2,2v2c0,5.2-2,10.1-5.7,13.8C33.6,41,28.7,43,23.5,43c0,0,0,0,0,0C12.7,43,4,34.3,4,23.5
		c0-5.2,2-10.1,5.7-13.8C13.4,6,18.3,4,23.5,4c0,0,0,0,0,0c2.8,0,5.4,0.6,7.9,1.7c1,0.4,2.2,0,2.6-1c0.4-1,0-2.2-1-2.6
		c-3-1.3-6.2-2-9.6-2c0,0,0,0,0,0C17.2,0,11.3,2.4,6.9,6.9C2.5,11.3,0,17.2,0,23.5c0,6.3,2.4,12.2,6.9,16.6S17.2,47,23.5,47
		c0,0,0,0,0,0c6.3,0,12.2-2.4,16.6-6.9c4.4-4.4,6.9-10.3,6.9-16.6v-2C47,20.4,46.1,19.5,45,19.5z"/>
	<path id="Shape_1_" d="M48.4,2.6c-0.8-0.8-2-0.8-2.8,0L23.4,25.1l-5-5.1c-0.8-0.8-2-0.8-2.8,0c-0.8,0.8-0.8,2.1,0,2.8l6.4,6.5
		c0.4,0.4,0.9,0.6,1.4,0.6c0.5,0,1-0.2,1.4-0.6l23.6-24C49.2,4.6,49.2,3.4,48.4,2.6z"/>
</g>
</svg>
