<?xml version="1.0" encoding="utf-8"?>
<!-- Generator: Adobe Illustrator 21.0.0, SVG Export Plug-In . SVG Version: 6.00 Build 0)  -->
<svg version="1.1" id="Layer_1" xmlns="http://www.w3.org/2000/svg" xmlns:xlink="http://www.w3.org/1999/xlink" x="0px" y="0px"
	 viewBox="0 0 24 24" style="enable-background:new 0 0 24 24;" xml:space="preserve">
<title>9E84B3C4-09CE-449F-AA48-834DEBB33ED8</title>
<desc>Created with sketchtool.</desc>
<g id="Page-1">
	<g id="Main" transform="translate(-651.000000, -3848.000000)">
		<g id="Icon-Box-_x23_1-Copy-4" transform="translate(0.000000, 3180.000000)">
			<g id="Group-12" transform="translate(515.000000, 267.000000)">
				<g id="Group-11-Copy" transform="translate(136.000000, 401.000000)">
					<g id="_x30_02-github">
						<path id="Shape" d="M12,0C5.4,0,0,5.4,0,12c0,5.3,3.4,9.8,8.2,11.4C8.8,23.6,9,23.2,9,22.9c0-0.3,0-1,0-2
							c-3.3,0.7-4-1.6-4-1.6c-0.5-1.4-1.3-1.8-1.3-1.8c-1.1-0.7,0.1-0.7,0.1-0.7C4.9,16.8,5.6,18,5.6,18c1.1,1.8,2.8,1.3,3.5,1
							c0.1-0.8,0.4-1.3,0.8-1.6c-2.7-0.3-5.5-1.3-5.5-6c0-1.3,0.5-2.4,1.2-3.2C5.5,7.9,5,6.7,5.7,5c0,0,1-0.3,3.3,1.2
							c1-0.3,2-0.4,3-0.4c1,0,2,0.1,3,0.4C17.3,4.7,18.3,5,18.3,5c0.7,1.7,0.2,2.9,0.1,3.2c0.8,0.8,1.2,1.9,1.2,3.2
							c0,4.6-2.8,5.6-5.5,5.9c0.4,0.4,0.8,1.1,0.8,2.2c0,1.6,0,2.9,0,3.3c0,0.3,0.2,0.7,0.8,0.6C20.6,21.9,24,17.4,24,12
							C24,5.4,18.6,0,12,0z"/>
					</g>
				</g>
			</g>
		</g>
	</g>
</g>
</svg>
