<?xml version="1.0" encoding="utf-8"?>
<!-- Generator: Adobe Illustrator 21.0.0, SVG Export Plug-In . SVG Version: 6.00 Build 0)  -->
<svg version="1.1" id="Layer_1" xmlns="http://www.w3.org/2000/svg" xmlns:xlink="http://www.w3.org/1999/xlink" x="0px" y="0px"
	 viewBox="0 0 20 20" style="enable-background:new 0 0 20 20;" xml:space="preserve">
<title>3B1369A5-8247-422B-9D33-BD474DB123F9</title>
<desc>Created with sketchtool.</desc>
<g id="Symbols">
	<g id="Footer" transform="translate(-987.000000, -183.000000)">
		<g id="Group-19">
			<g id="Group-10" transform="translate(113.000000, 26.000000)">
				<g id="_x30_02-facebook-logo-1-copy" transform="translate(874.000000, 157.000000)">
					<path id="Facebook__x28_alt_x29_" d="M20,3.3C20,1.6,18.4,0,16.7,0H3.3C1.6,0,0,1.6,0,3.3v13.3C0,18.4,1.6,20,3.3,20H10v-7.6
						H7.6V9.1H10V7.8c0-2.2,1.7-4.3,3.8-4.3h2.7v3.3h-2.7c-0.3,0-0.6,0.4-0.6,0.9v1.3h3.3v3.3h-3.3V20h3.6c1.8,0,3.3-1.6,3.3-3.3
						V3.3z"/>
				</g>
			</g>
		</g>
	</g>
</g>
</svg>
