<?xml version="1.0" encoding="utf-8"?>
<!-- Generator: Adobe Illustrator 21.0.0, SVG Export Plug-In . SVG Version: 6.00 Build 0)  -->
<svg version="1.1" id="Layer_1" xmlns="http://www.w3.org/2000/svg" xmlns:xlink="http://www.w3.org/1999/xlink" x="0px" y="0px"
	 viewBox="0 0 17.6 17.6" style="enable-background:new 0 0 17.6 17.6;" xml:space="preserve">
<title>71D277E3-F69D-4B47-923F-D8FA050E6B7F</title>
<desc>Created with sketchtool.</desc>
<g id="Page-1">
	<g id="Menu-Mobile" transform="translate(-279.000000, -29.000000)">
		<path id="Combined-Shape" d="M287.8,36.4l7.1-7.1c0.4-0.4,1-0.4,1.4,0s0.4,1,0,1.4l-7.1,7.1l7.1,7.1c0.4,0.4,0.4,1,0,1.4
			s-1,0.4-1.4,0l-7.1-7.1l-7.1,7.1c-0.4,0.4-1,0.4-1.4,0s-0.4-1,0-1.4l7.1-7.1l-7.1-7.1c-0.4-0.4-0.4-1,0-1.4s1-0.4,1.4,0
			L287.8,36.4z"/>
	</g>
</g>
</svg>
