<?xml version="1.0" encoding="UTF-8"?>
<svg width="24px" height="16px" viewBox="0 0 24 16" version="1.1" xmlns="http://www.w3.org/2000/svg" xmlns:xlink="http://www.w3.org/1999/xlink">
    <!-- Generator: sketchtool 50 (54983) - http://www.bohemiancoding.com/sketch -->
    <title>92D4DF37-9C07-4282-B91B-D09E1A4B2E7E</title>
    <desc>Created with sketchtool.</desc>
    <defs></defs>
    <g id="Page-1" stroke="none" stroke-width="1" fill="none" fill-rule="evenodd">
        <g id="Main-Mobile" transform="translate(-276.000000, -30.000000)" fill="#ffffff">
            <path d="M277,30 L299,30 C299.552285,30 300,30.4477153 300,31 C300,31.5522847 299.552285,32 299,32 L277,32 C276.447715,32 276,31.5522847 276,31 C276,30.4477153 276.447715,30 277,30 Z M277,37 L299,37 C299.552285,37 300,37.4477153 300,38 C300,38.5522847 299.552285,39 299,39 L277,39 C276.447715,39 276,38.5522847 276,38 C276,37.4477153 276.447715,37 277,37 Z M277,44 L299,44 C299.552285,44 300,44.4477153 300,45 C300,45.5522847 299.552285,46 299,46 L277,46 C276.447715,46 276,45.5522847 276,45 C276,44.4477153 276.447715,44 277,44 Z" id="Combined-Shape"></path>
        </g>
    </g>
</svg>
